<svg width="28" height="28" viewBox="0 0 28 28" fill="none" xmlns="http://www.w3.org/2000/svg">
<path d="M13.9992 26.95C6.85852 26.95 1.04922 21.1407 1.04922 14C1.04922 6.85925 6.85852 1.04995 13.9992 1.04995C21.1399 1.04995 26.9492 6.85925 26.9492 14C26.9492 21.1407 21.1399 26.95 13.9992 26.95Z" fill="#8BB7F0"/>
<path d="M13.9992 1.39995C20.9467 1.39995 26.5992 7.05245 26.5992 14C26.5992 20.9475 20.9467 26.6 13.9992 26.6C7.05172 26.6 1.39922 20.9475 1.39922 14C1.39922 7.05245 7.05172 1.39995 13.9992 1.39995ZM13.9992 0.699951C6.65412 0.699951 0.699219 6.65485 0.699219 14C0.699219 21.3451 6.65412 27.3 13.9992 27.3C21.3443 27.3 27.2992 21.3451 27.2992 14C27.2992 6.65485 21.3443 0.699951 13.9992 0.699951Z" fill="#4E7AB5"/>
<path d="M20.2992 9.79995H11.5492L7.34922 17.5H16.0992L20.2992 9.79995Z" fill="white"/>
</svg>
