<svg width="112" height="18" viewBox="0 0 112 18" fill="none" xmlns="http://www.w3.org/2000/svg">
<path d="M15.9787 13.7888H0L7.46043 0.0371094H23.4391L15.9787 13.7888Z" fill="#6399A8"/>
<path d="M28.1901 5.28911C26.39 5.28911 25.4806 6.69954 25.4806 8.81518C25.4806 10.8195 26.4642 12.3227 28.1901 12.3227C30.1388 12.3227 30.8625 10.5411 30.8625 8.81518C30.8625 7.01503 29.9346 5.28911 28.1901 5.28911ZM23.4207 0.0185547H25.5549V5.12208H25.592C26.1673 4.15705 27.3921 3.56319 28.4685 3.56319C31.5121 3.56319 32.9967 5.95721 32.9967 8.87086C32.9967 11.5618 31.6976 14.0857 28.8211 14.0857C27.522 14.0857 26.1116 13.7517 25.4806 12.4526H25.4435V13.8259H23.4207V0.0185547Z" fill="#201D1C"/>
<path d="M44.4286 12.3227C43.2223 12.3413 43.0924 12.3413 42.9996 12.3413C42.6098 12.3413 42.4985 12.1372 42.4985 11.5804V6.43977C42.4985 4.34268 40.5128 3.54468 38.6384 3.54468C36.5042 3.54468 34.3885 4.30557 34.2401 6.86661H36.3743C36.467 5.79023 37.3022 5.28916 38.5085 5.28916C39.3621 5.28916 40.5128 5.4933 40.5128 6.64391C40.5128 7.94299 39.158 7.75741 37.6177 8.05434C35.8175 8.25848 33.906 8.66677 33.906 11.1721C33.906 13.1208 35.4835 14.0858 37.2094 14.0858C38.3414 14.0858 39.7147 13.7146 40.5499 12.8795C40.7169 13.7889 41.3293 14.0858 42.2016 14.0858L44.5585 13.9373L44.4286 12.3227ZM40.3643 10.4484C40.3643 11.8402 38.8982 12.3413 37.9703 12.3413C37.2279 12.3413 36.0031 12.0444 36.0031 11.0608C36.0031 9.91017 36.8197 9.55756 37.7476 9.39054C38.6755 9.22351 39.7147 9.24207 40.3643 8.79668V10.4484Z" fill="#201D1C"/>
<path d="M49.4763 3.56323C48.2144 3.56323 47.1009 4.23133 46.4699 5.34483L46.4328 5.30771V3.84161H44.4099L44.3914 12.3413L44.4841 13.9559L46.5256 13.826V7.94299C46.5256 6.47688 47.4349 5.30771 48.8639 5.30771C50.1073 5.30771 50.7197 5.97581 50.7568 7.55326V13.826H52.891V6.97796C52.9096 4.71384 51.5734 3.56323 49.4763 3.56323Z" fill="#201D1C"/>
<path d="M59.1081 12.3413C61.0196 12.3413 61.8176 10.5411 61.8176 8.81518C61.8176 6.60675 60.7969 5.30767 59.1452 5.30767C57.1409 5.30767 56.4357 7.14494 56.4357 8.9451C56.4357 10.6339 57.2523 12.3413 59.1081 12.3413ZM63.8776 13.8074H61.8547V12.4526H61.8176C61.2609 13.5847 60.036 14.0672 58.8297 14.0672C55.7862 14.0672 54.3015 11.7288 54.3015 8.74095C54.3015 5.12209 56.38 3.54463 58.4957 3.54463C59.702 3.54463 61.0567 4.00859 61.7063 5.10353H61.7434V0H63.8776V13.8074Z" fill="#201D1C"/>
<path d="M72.3402 7.16354C72.1732 5.9387 71.3195 5.28916 70.1318 5.28916C69.0368 5.28916 67.478 5.88302 67.478 8.92658C67.478 10.5968 68.1832 12.3413 70.039 12.3413C71.2638 12.3413 72.1361 11.4876 72.3402 10.0586H74.4744C74.0847 12.6382 72.5258 14.0672 70.039 14.0672C67.014 14.0672 65.3438 11.8402 65.3438 8.90802C65.3438 5.90158 66.9398 3.54468 70.1132 3.54468C72.3588 3.54468 74.2703 4.69529 74.4744 7.16354H72.3402Z" fill="#201D1C"/>
<path d="M85.8507 12.3227C84.6444 12.3413 84.5145 12.3413 84.4217 12.3413C84.032 12.3413 83.9206 12.1372 83.9206 11.5804V6.43977C83.9206 4.34268 81.9349 3.54468 80.0605 3.54468C77.9263 3.54468 75.8106 4.30557 75.6622 6.86661H77.7964C77.8892 5.79023 78.7243 5.28916 79.9306 5.28916C80.7843 5.28916 81.9349 5.4933 81.9349 6.64391C81.9349 7.94299 80.5801 7.75741 79.0398 8.05434C77.2396 8.25848 75.3281 8.66677 75.3281 11.1721C75.3281 13.1208 76.9056 14.0858 78.6315 14.0858C79.7636 14.0858 81.1369 13.7146 81.972 12.8795C82.139 13.7889 82.7514 14.0858 83.6237 14.0858L85.9806 13.9373L85.8507 12.3227ZM81.7864 10.4484C81.7864 11.8402 80.3203 12.3413 79.3924 12.3413C78.6501 12.3413 77.4252 12.0444 77.4252 11.0608C77.4252 9.91017 78.2418 9.55756 79.1697 9.39054C80.0976 9.22351 81.1369 9.24207 81.7864 8.79668V10.4484Z" fill="#201D1C"/>
<path d="M96.6329 3.56323C95.2225 3.56323 94.3132 4.19421 93.608 5.23348C93.1811 4.10142 92.0676 3.56323 90.8984 3.56323C89.3581 3.56323 88.5601 4.23133 87.9291 5.23348H87.8734V3.84161H85.8506V12.3413L85.9434 13.9559L87.9848 13.826V7.90587C87.9848 6.25418 88.9869 5.32627 90.1004 5.32627C91.381 5.32627 91.8078 6.0686 91.8078 7.42335V13.826H93.942V7.9801C93.942 6.2913 94.5544 5.30771 96.002 5.30771C97.6722 5.30771 97.765 6.40265 97.765 7.99866V13.826H99.8992V6.94084C99.8621 4.49115 98.6558 3.56323 96.6329 3.56323Z" fill="#201D1C"/>
<path d="M106.543 5.28915C104.743 5.28915 103.834 6.69958 103.834 8.81522C103.834 10.8195 104.817 12.3227 106.543 12.3227C108.492 12.3227 109.216 10.5411 109.216 8.81522C109.216 7.01507 108.306 5.28915 106.543 5.28915ZM101.792 3.82305H103.815V5.17781H103.852C104.446 4.04575 105.615 3.56323 106.84 3.56323C109.884 3.56323 111.368 5.95725 111.368 8.8709C111.368 11.5619 110.069 14.0858 107.211 14.0858C105.986 14.0858 104.65 13.6218 103.982 12.5269H103.945V17.5005H101.792V3.82305Z" fill="#201D1C"/>
</svg>
