<svg width="97" height="115" viewBox="0 0 97 115" fill="none" xmlns="http://www.w3.org/2000/svg">
<path d="M82.1973 13.4085L86.6949 15.978C86.6949 15.978 80.9853 25.6846 73.5261 38.7826C65.4007 53.0501 55.0752 71.1619 44.6179 80.5374C35.3034 88.8883 25.3465 95.9545 25.3465 95.9545L21.6052 91.4592C21.6052 91.4592 32.3608 83.9821 40.7646 76.6831C52.9698 66.0823 62.072 47.7146 67.1013 38.7826C76.1158 22.7732 82.1973 13.4085 82.1973 13.4085Z" fill="#9D9171"/>
<path d="M2.59828 104.275C1.52724 102.903 1.84534 100.91 3.29039 99.9392L17.5317 90.3721C18.7918 89.5256 20.4857 89.7538 21.4769 90.9036L26.2699 96.464C27.3176 97.6795 27.2233 99.5042 26.0559 100.605L13.2904 112.644C12.0047 113.857 9.95447 113.701 8.86708 112.308L2.59828 104.275Z" fill="black"/>
<rect x="20.5312" y="104.098" width="2.56953" height="7.81632" rx="1" transform="rotate(-41.9922 20.5312 104.098)" fill="black"/>
<path d="M84.5641 4.29555C85.9774 1.92318 89.0462 1.14569 91.4186 2.55897L92.7045 3.32499C95.0768 4.73827 95.8543 7.80714 94.441 10.1795L89.506 18.4636L79.6291 12.5796L84.5641 4.29555Z" fill="black"/>
<circle cx="75.131" cy="31.7162" r="12.2053" fill="black"/>
</svg>
