<svg width="105" height="79" viewBox="0 0 105 79" fill="none" xmlns="http://www.w3.org/2000/svg">
<path d="M39.0977 40.8709C39.0977 40.8709 49.7428 30.3871 65.0654 40.8709" stroke="url(#paint0_linear_1091_492)" stroke-opacity="0.5" stroke-width="4"/>
<path d="M2.64453 49.258L13.2897 13.129L29.7413 2.16125" stroke="url(#paint1_linear_1091_492)" stroke-opacity="0.5" stroke-width="4"/>
<path d="M101.516 49.258L88.129 13.129L72 2.16125" stroke="url(#paint2_linear_1091_492)" stroke-opacity="0.5" stroke-width="4"/>
<path d="M23.7742 76.3548C35.7997 76.3548 45.5484 66.6061 45.5484 54.5806C45.5484 42.555 35.7997 32.8064 23.7742 32.8064C11.7486 32.8064 2 42.555 2 54.5806C2 66.6061 11.7486 76.3548 23.7742 76.3548Z" stroke="url(#paint3_linear_1091_492)" stroke-opacity="0.5" stroke-width="4"/>
<path d="M80.2273 76.3548C92.2529 76.3548 102.002 66.6061 102.002 54.5806C102.002 42.555 92.2529 32.8064 80.2273 32.8064C68.2018 32.8064 58.4531 42.555 58.4531 54.5806C58.4531 66.6061 68.2018 76.3548 80.2273 76.3548Z" stroke="url(#paint4_linear_1091_492)" stroke-opacity="0.5" stroke-width="4"/>
<path d="M26.1951 69.9032C16.3564 69.9032 8.45312 62 8.45312 52.1613" stroke="url(#paint5_linear_1091_492)" stroke-opacity="0.5" stroke-width="4"/>
<path d="M82.6443 69.9032C72.8056 69.9032 64.9023 62 64.9023 52.1613" stroke="url(#paint6_linear_1091_492)" stroke-opacity="0.5" stroke-width="4"/>
<defs>
<linearGradient id="paint0_linear_1091_492" x1="52.0815" y1="36.2114" x2="52.0815" y2="40.8709" gradientUnits="userSpaceOnUse">
<stop stop-color="#613554"/>
<stop offset="0.9999" stop-color="#2B2837" stop-opacity="0.01"/>
<stop offset="1" stop-color="#6B6C6E" stop-opacity="0"/>
</linearGradient>
<linearGradient id="paint1_linear_1091_492" x1="16.1929" y1="2.16125" x2="16.1929" y2="49.258" gradientUnits="userSpaceOnUse">
<stop stop-color="#613554"/>
<stop offset="0.9999" stop-color="#2B2837" stop-opacity="0.01"/>
<stop offset="1" stop-color="#6B6C6E" stop-opacity="0"/>
</linearGradient>
<linearGradient id="paint2_linear_1091_492" x1="86.7581" y1="2.16125" x2="86.7581" y2="49.258" gradientUnits="userSpaceOnUse">
<stop stop-color="#613554"/>
<stop offset="0.9999" stop-color="#2B2837" stop-opacity="0.01"/>
<stop offset="1" stop-color="#6B6C6E" stop-opacity="0"/>
</linearGradient>
<linearGradient id="paint3_linear_1091_492" x1="23.7742" y1="32.8064" x2="23.7742" y2="76.3548" gradientUnits="userSpaceOnUse">
<stop stop-color="#613554"/>
<stop offset="0.9999" stop-color="#2B2837" stop-opacity="0.01"/>
<stop offset="1" stop-color="#6B6C6E" stop-opacity="0"/>
</linearGradient>
<linearGradient id="paint4_linear_1091_492" x1="80.2273" y1="32.8064" x2="80.2273" y2="76.3548" gradientUnits="userSpaceOnUse">
<stop stop-color="#613554"/>
<stop offset="0.9999" stop-color="#2B2837" stop-opacity="0.01"/>
<stop offset="1" stop-color="#6B6C6E" stop-opacity="0"/>
</linearGradient>
<linearGradient id="paint5_linear_1091_492" x1="17.3241" y1="52.1613" x2="17.3241" y2="69.9032" gradientUnits="userSpaceOnUse">
<stop stop-color="#613554"/>
<stop offset="0.9999" stop-color="#2B2837" stop-opacity="0.01"/>
<stop offset="1" stop-color="#6B6C6E" stop-opacity="0"/>
</linearGradient>
<linearGradient id="paint6_linear_1091_492" x1="73.7733" y1="52.1613" x2="73.7733" y2="69.9032" gradientUnits="userSpaceOnUse">
<stop stop-color="#613554"/>
<stop offset="0.9999" stop-color="#2B2837" stop-opacity="0.01"/>
<stop offset="1" stop-color="#6B6C6E" stop-opacity="0"/>
</linearGradient>
</defs>
</svg>
