<svg width="858" height="641" viewBox="0 0 858 641" fill="none" xmlns="http://www.w3.org/2000/svg">
<path d="M321.645 333.065C321.645 333.065 410.212 245.839 537.696 333.065" stroke="url(#paint0_linear_1090_469)" stroke-opacity="0.5" stroke-width="25"/>
<path d="M18.3672 402.845L106.935 102.252L243.812 11" stroke="url(#paint1_linear_1090_469)" stroke-opacity="0.5" stroke-width="25"/>
<path d="M840.975 402.845L729.594 102.252L595.4 11" stroke="url(#paint2_linear_1090_469)" stroke-opacity="0.5" stroke-width="25"/>
<path d="M194.161 628.29C294.214 628.29 375.323 547.182 375.323 447.129C375.323 347.076 294.214 265.968 194.161 265.968C94.1087 265.968 13 347.076 13 447.129C13 547.182 94.1087 628.29 194.161 628.29Z" stroke="url(#paint3_linear_1090_469)" stroke-opacity="0.5" stroke-width="25"/>
<path d="M663.839 628.29C763.892 628.29 845 547.182 845 447.129C845 347.076 763.892 265.968 663.839 265.968C563.786 265.968 482.678 347.076 482.678 447.129C482.678 547.182 563.786 628.29 663.839 628.29Z" stroke="url(#paint4_linear_1090_469)" stroke-opacity="0.5" stroke-width="25"/>
<path d="M214.291 574.613C132.433 574.613 66.6777 508.858 66.6777 427" stroke="url(#paint5_linear_1090_469)" stroke-opacity="0.5" stroke-width="25"/>
<path d="M683.968 574.613C602.11 574.613 536.355 508.858 536.355 427" stroke="url(#paint6_linear_1090_469)" stroke-opacity="0.5" stroke-width="25"/>
<defs>
<linearGradient id="paint0_linear_1090_469" x1="429.67" y1="294.298" x2="429.67" y2="333.065" gradientUnits="userSpaceOnUse">
<stop stop-color="#613554"/>
<stop offset="0.9999" stop-color="#2B2837" stop-opacity="0.01"/>
<stop offset="1" stop-color="#6B6C6E" stop-opacity="0"/>
</linearGradient>
<linearGradient id="paint1_linear_1090_469" x1="131.09" y1="11" x2="131.09" y2="402.845" gradientUnits="userSpaceOnUse">
<stop stop-color="#613554"/>
<stop offset="0.9999" stop-color="#2B2837" stop-opacity="0.01"/>
<stop offset="1" stop-color="#6B6C6E" stop-opacity="0"/>
</linearGradient>
<linearGradient id="paint2_linear_1090_469" x1="718.187" y1="11" x2="718.187" y2="402.845" gradientUnits="userSpaceOnUse">
<stop stop-color="#613554"/>
<stop offset="0.9999" stop-color="#2B2837" stop-opacity="0.01"/>
<stop offset="1" stop-color="#6B6C6E" stop-opacity="0"/>
</linearGradient>
<linearGradient id="paint3_linear_1090_469" x1="194.161" y1="265.968" x2="194.161" y2="628.29" gradientUnits="userSpaceOnUse">
<stop stop-color="#613554"/>
<stop offset="0.9999" stop-color="#2B2837" stop-opacity="0.01"/>
<stop offset="1" stop-color="#6B6C6E" stop-opacity="0"/>
</linearGradient>
<linearGradient id="paint4_linear_1090_469" x1="663.839" y1="265.968" x2="663.839" y2="628.29" gradientUnits="userSpaceOnUse">
<stop stop-color="#613554"/>
<stop offset="0.9999" stop-color="#2B2837" stop-opacity="0.01"/>
<stop offset="1" stop-color="#6B6C6E" stop-opacity="0"/>
</linearGradient>
<linearGradient id="paint5_linear_1090_469" x1="140.484" y1="427" x2="140.484" y2="574.613" gradientUnits="userSpaceOnUse">
<stop stop-color="#613554"/>
<stop offset="0.9999" stop-color="#2B2837" stop-opacity="0.01"/>
<stop offset="1" stop-color="#6B6C6E" stop-opacity="0"/>
</linearGradient>
<linearGradient id="paint6_linear_1090_469" x1="610.162" y1="427" x2="610.162" y2="574.613" gradientUnits="userSpaceOnUse">
<stop stop-color="#613554"/>
<stop offset="0.9999" stop-color="#2B2837" stop-opacity="0.01"/>
<stop offset="1" stop-color="#6B6C6E" stop-opacity="0"/>
</linearGradient>
</defs>
</svg>
