<svg width="28" height="28" viewBox="0 0 28 28" fill="none" xmlns="http://www.w3.org/2000/svg">
<path d="M12.985 24.045H14.91V22.225C16.3333 22.0617 17.4417 21.6242 18.235 20.9125C19.0283 20.2008 19.425 19.25 19.425 18.06C19.425 16.87 19.0867 15.9017 18.41 15.155C17.7333 14.4083 16.59 13.6967 14.98 13.02C13.6267 12.46 12.6467 11.9583 12.04 11.515C11.4333 11.0717 11.13 10.4767 11.13 9.73C11.13 9.00667 11.3925 8.435 11.9175 8.015C12.4425 7.595 13.16 7.385 14.07 7.385C14.77 7.385 15.3767 7.54833 15.89 7.875C16.4033 8.20167 16.835 8.69167 17.185 9.345L18.865 8.54C18.4683 7.72333 17.9433 7.08167 17.29 6.615C16.6367 6.14833 15.8667 5.86833 14.98 5.775V3.99H13.055V5.775C11.865 5.93833 10.9258 6.37583 10.2375 7.0875C9.54917 7.79917 9.205 8.68 9.205 9.73C9.205 10.8733 9.555 11.7833 10.255 12.46C10.955 13.1367 12.005 13.7667 13.405 14.35C14.9683 15.0033 16.0417 15.5925 16.625 16.1175C17.2083 16.6425 17.5 17.29 17.5 18.06C17.5 18.8067 17.1908 19.4075 16.5725 19.8625C15.9542 20.3175 15.1783 20.545 14.245 20.545C13.335 20.545 12.5242 20.2883 11.8125 19.775C11.1008 19.2617 10.605 18.5617 10.325 17.675L8.54 18.27C9.03 19.3433 9.63083 20.1892 10.3425 20.8075C11.0542 21.4258 11.935 21.875 12.985 22.155V24.045ZM14 28C12.0867 28 10.2783 27.6325 8.575 26.8975C6.87167 26.1625 5.38417 25.1592 4.1125 23.8875C2.84083 22.6158 1.8375 21.1283 1.1025 19.425C0.3675 17.7217 0 15.9133 0 14C0 12.0633 0.3675 10.2433 1.1025 8.54C1.8375 6.83667 2.84083 5.355 4.1125 4.095C5.38417 2.835 6.87167 1.8375 8.575 1.1025C10.2783 0.3675 12.0867 0 14 0C15.9367 0 17.7567 0.3675 19.46 1.1025C21.1633 1.8375 22.645 2.835 23.905 4.095C25.165 5.355 26.1625 6.83667 26.8975 8.54C27.6325 10.2433 28 12.0633 28 14C28 15.9133 27.6325 17.7217 26.8975 19.425C26.1625 21.1283 25.165 22.6158 23.905 23.8875C22.645 25.1592 21.1633 26.1625 19.46 26.8975C17.7567 27.6325 15.9367 28 14 28ZM14 25.9C17.3133 25.9 20.125 24.7392 22.435 22.4175C24.745 20.0958 25.9 17.29 25.9 14C25.9 10.6867 24.745 7.875 22.435 5.565C20.125 3.255 17.3133 2.1 14 2.1C10.71 2.1 7.90417 3.255 5.5825 5.565C3.26083 7.875 2.1 10.6867 2.1 14C2.1 17.29 3.26083 20.0958 5.5825 22.4175C7.90417 24.7392 10.71 25.9 14 25.9Z" fill="#9D9171"/>
</svg>
