<svg width="1298" height="642" viewBox="0 0 1298 642" fill="none" xmlns="http://www.w3.org/2000/svg">
<path d="M313.785 642L106.501 528.271V356.604L0 298.667L313.785 127L629 298.667V525.41H586.114V323.701L521.069 356.604V528.271L313.785 642ZM313.785 421.694L538.939 298.667L313.785 177.785L90.0614 298.667L313.785 421.694ZM313.785 593.361L478.183 502.521V382.354L313.785 470.333L149.388 380.924V502.521L313.785 593.361Z" fill="url(#paint0_linear_1138_2)" fill-opacity="0.5"/>
<path d="M982.785 642L775.501 528.271V356.604L669 298.667L982.785 127L1298 298.667V525.41H1255.11V323.701L1190.07 356.604V528.271L982.785 642ZM982.785 421.694L1207.94 298.667L982.785 177.785L759.061 298.667L982.785 421.694ZM982.785 593.361L1147.18 502.521V382.354L982.785 470.333L818.388 380.924V502.521L982.785 593.361Z" fill="url(#paint1_linear_1138_2)" fill-opacity="0.51"/>
<path d="M648.285 155L586.001 120.771V69.1042L554 51.6667L648.285 0L743 51.6667V119.91H730.114V59.2014L710.569 69.1042V120.771L648.285 155ZM648.285 88.6944L715.939 51.6667L648.285 15.2847L581.061 51.6667L648.285 88.6944ZM648.285 140.361L697.683 113.021V76.8542L648.285 103.333L598.887 76.4236V113.021L648.285 140.361Z" fill="url(#paint2_linear_1138_2)" fill-opacity="0.51"/>
<defs>
<linearGradient id="paint0_linear_1138_2" x1="314.5" y1="127" x2="314.5" y2="642" gradientUnits="userSpaceOnUse">
<stop stop-color="#613554"/>
<stop offset="1" stop-color="#2B2837" stop-opacity="0.41"/>
</linearGradient>
<linearGradient id="paint1_linear_1138_2" x1="983.5" y1="127" x2="983.5" y2="642" gradientUnits="userSpaceOnUse">
<stop stop-color="#613554"/>
<stop offset="1" stop-color="#2B2837" stop-opacity="0.41"/>
</linearGradient>
<linearGradient id="paint2_linear_1138_2" x1="648.5" y1="0" x2="648.5" y2="155" gradientUnits="userSpaceOnUse">
<stop stop-color="#613554"/>
<stop offset="1" stop-color="#2B2837" stop-opacity="0.04"/>
</linearGradient>
</defs>
</svg>
