<svg width="44" height="44" viewBox="0 0 44 44" fill="none" xmlns="http://www.w3.org/2000/svg">
<path d="M17.6 39C13.6334 37.6667 10.3667 35.2833 7.80005 31.85C5.23338 28.4167 3.95005 24.4667 3.95005 20C3.95005 18.9333 4.03338 17.8667 4.20005 16.8C4.36672 15.7333 4.63338 14.6833 5.00005 13.65L1.80005 15.5L0.300049 12.95L8.95005 7.95L13.95 16.55L11.35 18.05L8.45005 13.1C7.98338 14.2 7.62505 15.3333 7.37505 16.5C7.12505 17.6667 7.00005 18.85 7.00005 20.05C7.00005 23.9167 8.14172 27.3333 10.425 30.3C12.7084 33.2667 15.6167 35.2833 19.15 36.35L17.6 39ZM32 13V10H37.75C36.1501 7.8 34.1417 6.08333 31.725 4.85C29.3084 3.61667 26.7334 3 24 3C21.7001 3 19.5584 3.41667 17.5751 4.25C15.5917 5.08333 13.8334 6.23333 12.3 7.7L10.75 5C12.55 3.43333 14.5667 2.20833 16.8 1.325C19.0334 0.441667 21.4167 0 23.9501 0C26.8834 0 29.65 0.591667 32.25 1.775C34.85 2.95833 37.1 4.63333 39 6.8V3H42V13H32ZM29.75 44L21.1 39L26.1 30.4L28.65 31.9L25.75 36.95C30.0834 36.5167 33.7084 34.6917 36.625 31.475C39.5417 28.2583 41 24.45 41 20.05C41 19.35 40.9584 18.6667 40.875 18C40.7917 17.3333 40.6667 16.6667 40.5 16H43.6C43.7334 16.6667 43.8334 17.3333 43.9001 18C43.9667 18.6667 44 19.3333 44 20C44 24.7667 42.5084 28.9833 39.5251 32.65C36.5417 36.3167 32.7334 38.6333 28.1 39.6L31.25 41.45L29.75 44Z" fill="#9D9171"/>
</svg>
