<svg width="20" height="28" viewBox="0 0 20 28" fill="none" xmlns="http://www.w3.org/2000/svg">
<path d="M10 20.37C12.5679 18.41 14.5062 16.5258 15.8148 14.7175C17.1235 12.9092 17.7778 11.2233 17.7778 9.66C17.7778 8.28333 17.5123 7.11667 16.9815 6.16C16.4506 5.20333 15.7963 4.42167 15.0185 3.815C14.2407 3.20833 13.3951 2.77083 12.4815 2.5025C11.5679 2.23417 10.7407 2.1 10 2.1C9.25926 2.1 8.4321 2.23417 7.51852 2.5025C6.60494 2.77083 5.75926 3.20833 4.98148 3.815C4.2037 4.42167 3.54938 5.20333 3.01852 6.16C2.48765 7.11667 2.22222 8.28333 2.22222 9.66C2.22222 11.2233 2.87654 12.9092 4.18518 14.7175C5.49383 16.5258 7.4321 18.41 10 20.37ZM10 23.03C6.61728 20.6267 4.10494 18.3283 2.46296 16.135C0.820987 13.9417 0 11.7833 0 9.66C0 8.07333 0.302469 6.67917 0.907408 5.4775C1.51235 4.27583 2.2963 3.26667 3.25926 2.45C4.22222 1.63333 5.2963 1.02083 6.48148 0.6125C7.66667 0.204167 8.83951 0 10 0C11.1605 0 12.3333 0.204167 13.5185 0.6125C14.7037 1.02083 15.7778 1.63333 16.7407 2.45C17.7037 3.26667 18.4877 4.27583 19.0926 5.4775C19.6975 6.67917 20 8.07333 20 9.66C20 11.7833 19.179 13.9417 17.537 16.135C15.8951 18.3283 13.3827 20.6267 10 23.03ZM10 11.9C10.716 11.9 11.3272 11.6608 11.8333 11.1825C12.3395 10.7042 12.5926 10.1267 12.5926 9.45C12.5926 8.77333 12.3395 8.19583 11.8333 7.7175C11.3272 7.23917 10.716 7 10 7C9.28395 7 8.67284 7.23917 8.16667 7.7175C7.66049 8.19583 7.40741 8.77333 7.40741 9.45C7.40741 10.1267 7.66049 10.7042 8.16667 11.1825C8.67284 11.6608 9.28395 11.9 10 11.9ZM0 28V25.9H20V28H0Z" fill="#9D9171"/>
</svg>
