<svg width="48" height="37" viewBox="0 0 48 37" fill="none" xmlns="http://www.w3.org/2000/svg">
<path d="M3.27273 37H10.9091V18.4545L0 10.2727V33.7272C0 35.5382 1.46727 37 3.27273 37Z" fill="#4285F4"/>
<path d="M37.0908 37H44.7272C46.5381 37 47.9999 35.5327 47.9999 33.7272V10.2727L37.0908 18.4545" fill="#34A853"/>
<path d="M37.0908 4.27273V18.4546L47.9999 10.2727V5.9091C47.9999 1.86182 43.3799 -0.445448 40.1454 1.98182" fill="#FBBC04"/>
<path d="M10.9092 18.4545V4.27271L24.0001 14.0909L37.091 4.27271V18.4545L24.0001 28.2727" fill="#EA4335"/>
<path d="M0 5.9091V10.2727L10.9091 18.4546V4.27273L7.85455 1.98182C4.61455 -0.445448 0 1.86182 0 5.9091Z" fill="#C5221F"/>
</svg>
