<svg width="23" height="23" viewBox="0 0 23 23" fill="none" xmlns="http://www.w3.org/2000/svg">
<path d="M7.21625 12.9088H8.28V10.5225H9.66C9.96667 10.5225 10.2206 10.4219 10.4219 10.2206C10.6231 10.0194 10.7237 9.76542 10.7237 9.45875V8.07875C10.7237 7.77208 10.6231 7.51813 10.4219 7.31687C10.2206 7.11562 9.96667 7.015 9.66 7.015H7.21625V12.9088ZM8.28 9.45875V8.07875H9.66V9.45875H8.28ZM11.9887 12.9088H14.4037C14.6912 12.9088 14.9404 12.8081 15.1512 12.6069C15.3621 12.4056 15.4675 12.1517 15.4675 11.845V8.07875C15.4675 7.77208 15.3621 7.51813 15.1512 7.31687C14.9404 7.11562 14.6912 7.015 14.4037 7.015H11.9887V12.9088ZM13.0525 11.845V8.07875H14.4037V11.845H13.0525ZM16.8762 12.9088H17.94V10.5225H19.3775V9.45875H17.94V8.07875H19.3775V7.015H16.8762V12.9088ZM5.175 19.55C4.715 19.55 4.3125 19.3775 3.9675 19.0325C3.6225 18.6875 3.45 18.285 3.45 17.825V1.725C3.45 1.265 3.6225 0.8625 3.9675 0.5175C4.3125 0.1725 4.715 0 5.175 0H21.275C21.735 0 22.1375 0.1725 22.4825 0.5175C22.8275 0.8625 23 1.265 23 1.725V17.825C23 18.285 22.8275 18.6875 22.4825 19.0325C22.1375 19.3775 21.735 19.55 21.275 19.55H5.175ZM5.175 17.825H21.275V1.725H5.175V17.825ZM1.725 23C1.265 23 0.8625 22.8275 0.5175 22.4825C0.1725 22.1375 0 21.735 0 21.275V3.45H1.725V21.275H19.55V23H1.725Z" fill="#9D9171"/>
</svg>
