<svg width="28" height="28" viewBox="0 0 28 28" fill="none" xmlns="http://www.w3.org/2000/svg">
<path d="M26.25 28C23.087 28 19.9435 27.2222 16.8194 25.6667C13.6954 24.1111 10.8889 22.0889 8.4 19.6C5.91111 17.1111 3.88889 14.3046 2.33333 11.1806C0.777778 8.05648 0 4.91296 0 1.75C0 1.25741 0.168519 0.842593 0.505556 0.505556C0.842593 0.168519 1.25741 0 1.75 0H7.19444C7.55741 0 7.875 0.123148 8.14722 0.369444C8.41944 0.615741 8.59444 0.946296 8.67222 1.36111L9.72222 6.26111C9.77407 6.62407 9.76759 6.95463 9.70278 7.25278C9.63796 7.55093 9.50185 7.8037 9.29445 8.01111L5.40555 11.9389C6.85741 14.35 8.48426 16.45 10.2861 18.2389C12.088 20.0278 14.1296 21.5444 16.4111 22.7889L20.1056 18.9778C20.3648 18.6926 20.663 18.4917 21 18.375C21.337 18.2583 21.6741 18.2389 22.0111 18.3167L26.6389 19.3278C27.0278 19.4056 27.3519 19.6 27.6111 19.9111C27.8704 20.2222 28 20.5852 28 21V26.25C28 26.7426 27.8315 27.1574 27.4944 27.4944C27.1574 27.8315 26.7426 28 26.25 28ZM4.23889 9.8L7.38889 6.61111L6.49444 2.33333H2.33333C2.33333 3.34444 2.48889 4.45278 2.8 5.65833C3.11111 6.86389 3.59074 8.24444 4.23889 9.8ZM18.5889 23.9167C19.6519 24.4093 20.8056 24.8111 22.05 25.1222C23.2944 25.4333 24.5 25.6148 25.6667 25.6667V21.5056L21.6611 20.6889L18.5889 23.9167Z" fill="#9D9171"/>
</svg>
