<svg width="6" height="6" viewBox="0 0 6 6" fill="none" xmlns="http://www.w3.org/2000/svg">
<path d="M1.80612 6C1.65306 6 1.52296 5.94743 1.41582 5.8423C1.30867 5.73717 1.2551 5.60951 1.2551 5.45932C1.2551 5.30914 1.30867 5.18148 1.41582 5.07634C1.52296 4.97121 1.65306 4.91865 1.80612 4.91865C1.95918 4.91865 2.08929 4.97121 2.19643 5.07634C2.30357 5.18148 2.35714 5.30914 2.35714 5.45932C2.35714 5.60951 2.30357 5.73717 2.19643 5.8423C2.08929 5.94743 1.95918 6 1.80612 6ZM4.86735 6C4.71429 6 4.58418 5.94743 4.47704 5.8423C4.3699 5.73717 4.31633 5.60951 4.31633 5.45932C4.31633 5.30914 4.3699 5.18148 4.47704 5.07634C4.58418 4.97121 4.71429 4.91865 4.86735 4.91865C5.02041 4.91865 5.15051 4.97121 5.25765 5.07634C5.3648 5.18148 5.41837 5.30914 5.41837 5.45932C5.41837 5.60951 5.3648 5.73717 5.25765 5.8423C5.15051 5.94743 5.02041 6 4.86735 6ZM1.40816 1.0438L2.25 2.75594H4.45408L5.41071 1.0438H1.40816ZM1.17857 0.593242H5.68622C5.80357 0.593242 5.89286 0.645807 5.95408 0.750939C6.01531 0.85607 6.01531 0.961202 5.95408 1.06633L4.92092 2.89111C4.8648 2.98623 4.79209 3.06258 4.70281 3.12015C4.61352 3.17772 4.51531 3.20651 4.40816 3.20651H2.08929L1.66071 3.98748H5.41837V4.43805H1.72959C1.51531 4.43805 1.36097 4.36796 1.26658 4.22778C1.17219 4.08761 1.17347 3.92991 1.27041 3.75469L1.7602 2.86859L0.596939 0.450563H0V0H0.895408L1.17857 0.593242Z" fill="#F1F1E6"/>
</svg>
