<svg width="28" height="28" viewBox="0 0 28 28" fill="none" xmlns="http://www.w3.org/2000/svg">
<path d="M19.145 20.755L20.72 19.18L15.155 13.58V6.545H13.055V14.42L19.145 20.755ZM14 28C12.0867 28 10.2783 27.6325 8.575 26.8975C6.87167 26.1625 5.38417 25.1592 4.1125 23.8875C2.84083 22.6158 1.8375 21.1283 1.1025 19.425C0.3675 17.7217 0 15.9133 0 14C0 12.0867 0.3675 10.2783 1.1025 8.575C1.8375 6.87167 2.84083 5.38417 4.1125 4.1125C5.38417 2.84083 6.87167 1.8375 8.575 1.1025C10.2783 0.3675 12.0867 0 14 0C15.9133 0 17.7217 0.3675 19.425 1.1025C21.1283 1.8375 22.6158 2.84083 23.8875 4.1125C25.1592 5.38417 26.1625 6.87167 26.8975 8.575C27.6325 10.2783 28 12.0867 28 14C28 15.9133 27.6325 17.7217 26.8975 19.425C26.1625 21.1283 25.1592 22.6158 23.8875 23.8875C22.6158 25.1592 21.1283 26.1625 19.425 26.8975C17.7217 27.6325 15.9133 28 14 28ZM14 25.9C17.2667 25.9 20.0667 24.7333 22.4 22.4C24.7333 20.0667 25.9 17.2667 25.9 14C25.9 10.7333 24.7333 7.93333 22.4 5.6C20.0667 3.26667 17.2667 2.1 14 2.1C10.7333 2.1 7.93333 3.26667 5.6 5.6C3.26667 7.93333 2.1 10.7333 2.1 14C2.1 17.2667 3.26667 20.0667 5.6 22.4C7.93333 24.7333 10.7333 25.9 14 25.9Z" fill="#9D9171"/>
</svg>
