<svg width="24" height="24" viewBox="0 0 24 24" fill="none" xmlns="http://www.w3.org/2000/svg">
<g clip-path="url(#clip0_226_50)">
<rect width="24.375" height="24.2812" transform="matrix(1 0 0 -1 -0.135254 24.135)" fill="url(#paint0_linear_226_50)"/>
<path d="M9.32788 16.8281V9.32814C9.32788 9.04689 9.48414 8.87502 9.79664 8.81252L16.2654 7.50002C16.6091 7.43752 16.7966 7.59377 16.8279 7.96877V13.6875C16.8279 14.1563 16.1248 14.4688 14.7185 14.625C12.0466 15.0469 12.4685 19.5469 16.1248 18.3281C17.531 17.8125 17.7654 16.4531 17.7654 15.0938V4.12502C17.7654 4.12502 17.7654 3.18752 16.9685 3.42189L8.99976 5.06252C8.99976 5.06252 8.39038 5.15627 8.39038 5.90627V15.4219C8.39038 15.8906 7.68726 16.2031 6.28101 16.3594C3.60914 16.7813 4.03101 21.2813 7.68726 20.0625C9.09351 19.5469 9.32788 18.1875 9.32788 16.8281Z" fill="white"/>
</g>
<defs>
<linearGradient id="paint0_linear_226_50" x1="12.1875" y1="0" x2="12.1875" y2="24.2812" gradientUnits="userSpaceOnUse">
<stop stop-color="#F46176"/>
<stop offset="1" stop-color="#F2253D"/>
</linearGradient>
<clipPath id="clip0_226_50">
<rect width="24" height="24" rx="2" fill="white"/>
</clipPath>
</defs>
</svg>
