<svg width="24" height="24" viewBox="0 0 24 24" fill="none" xmlns="http://www.w3.org/2000/svg">
<path d="M1.15932 17.7155C1.20884 17.7155 1.25076 17.6748 1.25788 17.6174L1.52708 15.4838L1.25868 13.3015C1.25068 13.2442 1.20884 13.2031 1.15932 13.2031C1.10852 13.2031 1.06524 13.245 1.05852 13.3015L0.823242 15.4838L1.05852 17.6167C1.06524 17.674 1.10852 17.7155 1.15932 17.7155Z" fill="#FF7700"/>
<path d="M0.27176 16.904C0.3204 16.904 0.35984 16.8662 0.36696 16.8096L0.5756 15.4837L0.36696 14.133C0.35976 14.0782 0.3204 14.0386 0.27176 14.0386C0.22096 14.0386 0.1816 14.0782 0.1744 14.1338L0 15.4838L0.1744 16.8093C0.1816 16.8654 0.22096 16.904 0.27176 16.904Z" fill="#FF7700"/>
<path d="M2.22075 12.8954C2.21435 12.826 2.16355 12.7754 2.10051 12.7754C2.03795 12.7754 1.98707 12.826 1.98123 12.8954L1.75635 15.4838L1.98123 17.9777C1.98707 18.0467 2.03795 18.0967 2.10051 18.0967C2.16355 18.0967 2.21435 18.0467 2.22075 17.9777L2.47515 15.4838L2.22075 12.8954Z" fill="#FF7700"/>
<path d="M3.05218 18.1972C3.12594 18.1972 3.18562 18.1365 3.19282 18.0571L3.43322 15.4846L3.19282 12.824C3.18562 12.7441 3.12594 12.6841 3.05218 12.6841C2.97738 12.6841 2.91682 12.7442 2.9117 12.8244L2.69922 15.4846L2.9117 18.0571C2.91682 18.1366 2.97738 18.1972 3.05218 18.1972Z" fill="#FF7700"/>
<path d="M4.01013 18.2387C4.09605 18.2387 4.16501 18.1699 4.17213 18.0779L4.17133 18.0785L4.39773 15.4844L4.17133 13.0159C4.16493 12.9253 4.09605 12.8555 4.01005 12.8555C3.92285 12.8555 3.85429 12.9253 3.84909 13.0166L3.64893 15.4845L3.84909 18.0779C3.85437 18.1699 3.92293 18.2387 4.01013 18.2387Z" fill="#FF7700"/>
<path d="M5.37036 15.4852L5.15796 11.4715C5.15204 11.3697 5.07276 11.2886 4.97548 11.2886C4.87892 11.2886 4.79988 11.3696 4.79396 11.4715L4.60596 15.4852L4.79396 18.0787C4.79988 18.1809 4.879 18.2609 4.97548 18.2609C5.07284 18.2609 5.15204 18.1809 5.15796 18.0787V18.0794L5.37036 15.4852Z" fill="#FF7700"/>
<path d="M5.95067 18.2652C6.05779 18.2652 6.14667 18.1763 6.15171 18.0628V18.0645L6.35027 15.4859L6.15171 10.5534C6.14667 10.44 6.05779 10.3511 5.95067 10.3511C5.84107 10.3511 5.75299 10.44 5.74707 10.5534L5.57227 15.4859L5.74787 18.0636C5.75299 18.1763 5.84107 18.2652 5.95067 18.2652Z" fill="#FF7700"/>
<path d="M6.9315 9.9187C6.81086 9.9187 6.7135 10.0177 6.70854 10.1426L6.5459 15.4867L6.70854 18.0374C6.71358 18.1617 6.81086 18.2601 6.9315 18.2601C7.05182 18.2601 7.1499 18.1625 7.15414 18.037V18.0383L7.3387 15.4867L7.15414 10.1426C7.1499 10.0169 7.05174 9.9187 6.9315 9.9187Z" fill="#FF7700"/>
<path d="M7.92066 18.265C8.05314 18.265 8.15866 18.1581 8.16362 18.0205V18.022L8.33426 15.4866L8.16362 9.96299C8.15858 9.82587 8.05314 9.71851 7.92066 9.71851C7.78738 9.71851 7.68026 9.82587 7.67818 9.96299L7.5249 15.4866L7.67818 18.022C7.68026 18.1581 7.78738 18.265 7.92066 18.265Z" fill="#FF7700"/>
<path d="M8.91835 18.2626C9.06131 18.2626 9.17731 18.1455 9.18163 17.9971V17.9994L9.33867 15.4871L9.18163 10.104C9.17731 9.95567 9.06131 9.83911 8.91835 9.83911C8.77435 9.83911 8.65835 9.95559 8.65411 10.104L8.51611 15.4871L8.65499 17.9982C8.65835 18.1455 8.77435 18.2626 8.91835 18.2626Z" fill="#FF7700"/>
<path d="M10.3489 15.487L10.2067 10.3001C10.2033 10.1401 10.078 10.0144 9.92266 10.0144C9.7669 10.0144 9.64154 10.1401 9.63826 10.3011L9.51074 15.487L9.63826 17.9828C9.64154 18.1415 9.76682 18.2673 9.92266 18.2673C10.0779 18.2673 10.2033 18.1415 10.2067 17.9805V17.9828L10.3489 15.487Z" fill="#FF7700"/>
<path d="M10.9346 18.272C11.0997 18.272 11.2364 18.1346 11.239 17.9658V17.9671L11.368 15.4884L11.239 9.31616C11.2365 9.14664 11.0998 9.00952 10.9346 9.00952C10.7695 9.00952 10.6332 9.14728 10.6299 9.31704L10.5151 15.4859L10.6299 17.9672C10.6332 18.1346 10.7695 18.272 10.9346 18.272Z" fill="#FF7700"/>
<path d="M11.9432 8.42896C11.7648 8.42896 11.6202 8.57687 11.6172 8.75719L11.4839 15.4893L11.618 17.9314C11.6202 18.1094 11.7649 18.2568 11.9432 18.2568C12.1188 18.2568 12.2661 18.1093 12.2669 17.9284V17.9314L12.4125 15.4893L12.2669 8.75719C12.2661 8.57623 12.1188 8.42896 11.9432 8.42896Z" fill="#FF7700"/>
<path d="M12.8657 18.2744C12.8729 18.275 20.9955 18.2788 21.0477 18.2788C22.6785 18.2788 24 16.9411 24 15.2903C24 13.6404 22.6784 12.3024 21.0477 12.3024C20.6429 12.3024 20.2573 12.3851 19.9057 12.5349C19.6719 9.84124 17.4405 7.72876 14.7183 7.72876C14.0529 7.72876 13.404 7.86172 12.8309 8.08628C12.6078 8.17348 12.5481 8.2634 12.5464 8.43764V17.9208C12.5489 18.104 12.6886 18.2562 12.8657 18.2744Z" fill="#FF7700"/>
</svg>
